<?xml version="1.0" standalone="no"?>
<!DOCTYPE svg PUBLIC "-//W3C//DTD SVG 20010904//EN"
 "http://www.w3.org/TR/2001/REC-SVG-20010904/DTD/svg10.dtd">
<svg version="1.0" xmlns="http://www.w3.org/2000/svg"
 width="512.000000pt" height="512.000000pt" viewBox="0 0 512.000000 512.000000"
 preserveAspectRatio="xMidYMid meet">
<metadata>
Created by potrace 1.14, written by Peter Selinger 2001-2017
</metadata>
<g transform="translate(0.000000,512.000000) scale(0.100000,-0.100000)"
fill="#000000" stroke="none">
<path d="M2457 5114 c-1 -1 -45 -4 -97 -8 -350 -24 -761 -151 -1070 -330 -565
-327 -986 -854 -1175 -1471 -37 -122 -42 -141 -54 -205 -6 -30 -14 -66 -16
-80 -36 -180 -50 -473 -32 -694 25 -318 131 -673 288 -971 56 -106 191 -310
272 -410 116 -144 295 -316 467 -449 83 -63 240 -160 365 -224 218 -111 503
-206 715 -237 19 -3 45 -8 57 -10 69 -15 154 -20 378 -20 138 0 275 3 305 7
638 78 1196 373 1630 858 47 53 192 247 235 315 190 300 332 685 372 1009 2
23 8 73 13 111 9 70 6 512 -3 550 -2 11 -8 45 -12 75 -4 30 -16 96 -27 145
-11 50 -21 97 -23 106 -10 51 -69 231 -101 311 -308 779 -982 1364 -1789 1553
-98 23 -139 31 -220 41 -22 3 -51 8 -65 10 -55 10 -403 25 -413 18z m394 -996
c51 -15 114 -69 141 -122 21 -40 22 -50 23 -531 1 -347 5 -489 12 -488 6 1 24
5 40 7 59 11 261 80 360 123 90 40 105 50 127 87 36 61 74 96 136 124 105 47
249 12 321 -79 63 -80 61 -52 63 -853 1 -547 -2 -742 -11 -778 -34 -130 -146
-211 -285 -204 -94 5 -186 64 -224 144 -13 28 -31 41 -100 73 -80 38 -243 100
-294 112 -24 6 -25 5 -27 -51 -2 -67 -11 -93 -51 -148 -48 -66 -115 -93 -237
-96 l-100 -3 -1 -191 c-1 -269 0 -268 -234 -262 -101 3 -153 9 -170 19 -65 37
-110 82 -137 136 l-28 58 -1 325 c-1 179 -2 328 -3 331 -1 4 -13 6 -28 6 -117
-2 -220 63 -270 171 -16 34 -29 50 -36 45 -7 -4 -61 -42 -120 -84 -114 -82
-147 -96 -190 -80 -55 21 -62 48 -62 245 l0 180 -110 2 c-158 2 -218 30 -273
124 l-27 45 -3 704 c-3 795 -5 774 69 848 73 75 32 71 908 72 568 1 794 -2
822 -11z"/>
<path d="M1278 3930 l-23 -6 -3 -684 c-1 -470 1 -687 8 -694 7 -7 70 -12 158
-12 81 -1 155 -2 164 -3 9 -1 30 -12 45 -25 28 -24 28 -25 33 -169 l5 -145
110 80 c61 43 168 120 239 170 l130 92 328 0 c281 1 330 3 338 16 6 9 10 283
10 686 0 591 -2 673 -16 685 -12 10 -173 12 -759 13 -409 1 -754 -1 -767 -4z
m1265 -264 c40 -8 81 -48 95 -96 6 -22 10 -160 9 -360 l-2 -325 -24 -32 c-45
-60 -46 -60 -596 -59 -484 1 -501 2 -535 21 -69 41 -71 49 -68 430 3 322 4
341 23 367 26 34 52 50 94 57 46 8 961 5 1004 -3z"/>
<path d="M1792 3469 c2 -3 57 -54 122 -112 l120 -106 75 67 c105 91 171 152
168 153 -8 5 -487 3 -485 -2z"/>
<path d="M1619 3346 c-3 -4 -3 -295 0 -343 1 -10 91 -13 416 -13 l415 0 0 181
c0 171 -1 181 -17 168 -18 -14 -123 -106 -262 -229 -92 -81 -113 -93 -154 -85
-26 6 -97 60 -183 140 -26 24 -152 135 -180 158 -17 15 -33 25 -35 23z"/>
<path d="M3784 3142 c-12 -1 -32 -14 -44 -27 l-23 -25 0 -722 0 -721 27 -24
c45 -38 97 -28 125 25 11 21 9 1443 -2 1460 -13 19 -59 38 -83 34z"/>
<path d="M3455 2906 c-73 -33 -215 -81 -329 -111 -55 -14 -102 -28 -105 -30
-2 -3 -5 -60 -7 -128 -1 -84 -7 -133 -17 -157 -35 -80 -119 -137 -209 -142
l-44 -3 0 -158 c0 -151 0 -158 20 -162 12 -2 80 -14 151 -26 191 -32 408 -94
568 -163 l37 -16 0 560 c0 308 -3 560 -7 559 -5 0 -30 -11 -58 -23z"/>
<path d="M2124 2279 c-71 -53 -79 -62 -82 -95 -1 -20 2 -51 8 -68 16 -50 51
-64 165 -65 55 -1 152 -4 216 -7 l115 -6 0 149 -1 148 -171 1 -171 0 -79 -57z"/>
<path d="M2370 1545 c0 -190 4 -314 10 -325 6 -11 20 -24 31 -31 27 -14 118
-18 127 -5 4 6 7 156 8 334 0 285 -2 322 -15 323 -9 0 -49 3 -88 5 l-73 5 0
-306z"/>
<path d="M2747 1813 c-3 -5 -4 -46 -3 -93 l1 -85 80 0 c102 0 115 10 114 94
l-1 59 -42 7 c-22 4 -54 9 -71 11 -16 3 -40 7 -52 9 -12 3 -24 2 -26 -2z"/>
</g>
</svg>
